# xmcd
#
# Track frame offsets:
#	150
#	14055
#	26108
#	38123
#	51831
#	62376
#	72086
#	82766
#	97863
#	110981
#	125113
#	139278
#	151223
#	163445
#	177028
#	190705
#	205295
#	226603
#	250029
#	270515
#
# Disc length: 3833 seconds
#
# Revision: 0
# Processed by: cddbd v1.5.2PL0 Copyright (c) Steve Scherf et al.
# Submitted via: EasyCDDAExtractor 2010.4.0.0
#
DISCID=0f0ef714
DTITLE=Various Artist - Sit And Cry The Blues
DYEAR=2011
DGENRE=Blues
TTITLE0=Buddy Guy - Sit And Cry (The Blues)
TTITLE1=Buddy Guy - Try To Quit You Baby
TTITLE2=Buddy Guy - You Sure Can't Do
TTITLE3=Buddy Guy - This Is The End
TTITLE4=Buddy Guy - First Time I Met The Blues
TTITLE5=Buddy Guy - Slop Around
TTITLE6=Buddy Guy - I Got My Eyes On You
TTITLE7=Buddy Guy - Broken Hearted Blues
TTITLE8=Buddy Guy - Let Me Love You Baby
TTITLE9=Buddy Guy - I Got A Strange Feeling
TTITLE10=Buddy Guy - Gully Hully
TTITLE11=Buddy Guy - Ten Years Ago
TTITLE12=Buddy Guy - You Sure Can't Do
TTITLE13=Buddy Guy - This Is The End
TTITLE14=Buddy Guy - I Hope You Come Back Home
TTITLE15=Buddy Guy - The Way You Been Treatin' Me
TTITLE16=Buddy Guy and Junior Wells - Buddy's Blues
TTITLE17=Buddy Guy and Junior Wells - Stormy Monday
TTITLE18=Buddy Guy and Junior Wells - Everyday I Have The Blues
TTITLE19=Buddy Guy and Junior Wells - Woman Blues
EXTD=
EXTT0=
EXTT1=
EXTT2=
EXTT3=
EXTT4=
EXTT5=
EXTT6=
EXTT7=
EXTT8=
EXTT9=
EXTT10=
EXTT11=
EXTT12=
EXTT13=
EXTT14=
EXTT15=
EXTT16=
EXTT17=
EXTT18=
EXTT19=
PLAYORDER=
